<svg xmlns="http://www.w3.org/2000/svg" xmlns:xlink="http://www.w3.org/1999/xlink" width="165" height="77" viewBox="0 0 165 77">
    <defs>
        <path id="a" d="M.062.419h163.98v76.517H.062z"/>
    </defs>
    <g fill="none" fill-rule="evenodd" transform="translate(-14 -24)">
        <rect width="193" height="125" fill="#FFF" fill-opacity="0" rx="5"/>
        <path fill="#258ABE" d="M163.807 76.513l-4.79-5.018a.411.411 0 0 1-.066-.547c.008-.01 3.652-6.245 3.652-6.245a.786.786 0 0 0 .09-.35.713.713 0 0 0-.706-.717l-2.676.002a.725.725 0 0 0-.636.37l-2.317 4.058c-.106.156-.336.195-.503.08l-3.741-3.903a.37.37 0 0 1 .032-.504l.048-.04c2.112-1.25 4.522-3.082 4.522-6.317 0-3.713-2.627-6.206-6.534-6.206-3.83 0-6.733 2.604-6.733 6.484 0 1.708.702 3.41 2.15 5.201l.033.04a.36.36 0 0 1 .076.266.38.38 0 0 1-.138.248c-3.186 1.837-4.791 4.27-4.791 7.247 0 5.048 4.161 7.69 8.276 7.69 2.824 0 5.028-1.099 7.148-3.572a.663.663 0 0 0 .042-.053c.127-.127.363-.127.506.02l2.572 2.703c.002.004.067.068.067.068a.718.718 0 0 0 .503.213h3.402a.717.717 0 0 0 .712-.72.744.744 0 0 0-.2-.498zm-13.56-21.588c1.606 0 2.47 1.125 2.47 2.496 0 1.608-1.41 2.538-3.112 3.499l-.086.043a.344.344 0 0 1-.417-.071l-.04-.04c-.737-.823-1.612-2.126-1.612-3.072 0-1.606 1.133-2.855 2.797-2.855zm3.433 17.14l-.014.018c-1.235 1.493-2.592 2.49-4.569 2.49-2.342 0-4.178-1.71-4.178-3.887 0-1.934.813-3.086 3.223-4.558.168-.1.357-.08.474.04l5.028 5.34a.4.4 0 0 1 .136.287.416.416 0 0 1-.1.27zM137.71 74.37l-.146.003c-3.707 0-5.586-2.063-5.586-6.127V56.27a.37.37 0 0 1 .364-.378h5.808c.384 0 .693-.326.693-.724v-2.659c0-.4-.31-.725-.693-.725h-5.791a.387.387 0 0 1-.38-.396v-5.502c.015-.39-.284-.732-.664-.749h-.08l-2.972.243c-.365 0-.678.325-.678.724v5.302a.37.37 0 0 1-.364.378l-3.645-.003c-.383 0-.696.325-.696.723l-.006 2.676c.006.197.084.379.218.51a.68.68 0 0 0 .497.202h3.635c.2 0 .364.168.364.377l-.003 12.778c0 6.859 4.92 9.305 9.236 9.305 0 0 .508.01.9-.031.39-.037.684-.325.684-.722v-2.51a.71.71 0 0 0-.694-.72M121.326 76.663c-.238-.7-.303-1.473-.322-1.813a76.805 76.805 0 0 1-.023-1.267l.002-12.763c0-6.738-4.533-9.14-8.775-9.14-3.357 0-6.42.927-8.392 2.31a.733.733 0 0 0-.206.999l1.56 2.225c.22.318.647.389.955.158l.21-.146c1.54-1.009 3.36-1.588 5.213-1.588 5.234 0 5.08 4.311 5.08 4.873 0 .286-.165.357-.36.351l-.808-.018c-4.061-.158-14.363 1.298-14.363 9.89 0 5.048 4 7.619 7.729 7.619 3.614 0 6.522-1.508 7.97-3.354l.018-.02a.093.093 0 0 1 .074-.04c.052 0 .093.046.093.098-.003.237-.001.77.046 1.234.034.418.085.73.153.957.06.2.183.401.368.502a.707.707 0 0 0 .292.08l2.898.002c.378 0 .684-.32.684-.705 0-.123-.096-.444-.096-.444zm-4.51-9.994c-.593 4.406-2.653 6.948-6.46 7.604-2.68.462-5.11-.696-5.237-3.715-.145-3.315 3.516-6.103 10.28-5.797 0 0 .496.029.83.073.297.036.478.132.592.319.11.174.129.524-.006 1.516z"/>
        <g transform="translate(14.475 24)">
            <mask id="b" fill="#fff">
                <use xlink:href="#a"/>
            </mask>
            <path fill="#258ABE" d="M162.897 50.172l-.15.004c-3.747 0-5.645-2.06-5.645-6.12V32.095c0-.207.167-.377.367-.377h5.87a.715.715 0 0 0 .703-.723v-2.656a.715.715 0 0 0-.703-.724h-5.85a.39.39 0 0 1-.387-.396v-5.496a.716.716 0 0 0-.669-.747h-.08l-3.004.242c-.37 0-.685.325-.685.723v5.296a.373.373 0 0 1-.366.378l-3.687-.004a.711.711 0 0 0-.698.723l-.006 2.672a.743.743 0 0 0 .218.51.688.688 0 0 0 .501.202h3.673c.202 0 .366.168.366.376v12.763c0 6.85 4.97 9.294 9.332 9.294 0 0 .515.01.912-.03.393-.038.687-.325.687-.722l.002-2.507a.711.711 0 0 0-.701-.719M36.912 75.38c-8.944 0-17.12-3.465-23.353-9.167 7.455 5.299 17.112 6.005 21.853 6.005 15.74 0 24.732-6.1 29.376-10.982-6.476 8.602-16.563 14.144-27.876 14.144zM1.604 36.907c.698 5.646 5.61 11.855 14.018 14.636 10.248 3.385 16.539 3.496 31.44.013C69.869 46.219 71.72 35.889 71.87 33.228a38.17 38.17 0 0 1 .352 7.283 23.283 23.283 0 0 1-.267 2.195 5.867 5.867 0 0 1-.237.908c-1.896 5.185-8.95 15.15-30.48 15.96-6.91.258-19.077-2.244-26.737-5.526-5.86-2.511-11.616-7.264-12.735-11.944-.055-.225-.096-.646-.122-.912a38.302 38.302 0 0 1-.04-4.285zm11.978-25.724c-1.89 2.284-1.887 4.328-1.887 4.628 0 3.389 4.7 8.81 18.316 8.81 8.072 0 14.588-1.642 19.507-3.358 7.886-2.753 11.789-6.115 11.65-8.62a2.513 2.513 0 0 0-.144-.726 36.644 36.644 0 0 1 4.03 4.624.055.055 0 0 1-.011-.011c.64.917 1.19 2.083 1.178 3.186-.037 3.684-3.436 9.343-18.877 10.68-7.648.666-17.533-.751-21.264-1.25-11.02-1.474-19.062-5.962-19.062-9.425 0-.265.177-.876.639-1.576a36.535 36.535 0 0 1 5.925-6.962zM54.76 7.067l-.044-.026c1.357.842 2.26 1.49 2.26 2.556 0 3.737-8.69 7.156-20.038 7.463-11.345.307-20.748-2.625-21.002-6.351-.082-1.21.86-2.17 2.473-3.233 5.387-3.446 11.726-5.437 18.504-5.437 6.507 0 12.606 1.835 17.847 5.028zm16.305 23.48c0 1.84-2.18 13.127-23.65 15.177-3.043.29-37.791.7-44.376-13.842-.1-.22-.189-.451-.243-.688a3.712 3.712 0 0 1-.09-1.35c.033-.314.176-1.037.278-1.437a37.735 37.735 0 0 1 1.352-3.94c-.053.432-.072.914-.058 1.51.018.806.18 1.693.477 2.555 2.809 8.174 20.157 15.283 41.186 9.255 8.92-2.557 22.244-7.463 22.244-14.977 0-.254.07-.725-.246-1.666a37.285 37.285 0 0 1 2.8 6.909c.326 1.175.326 1.73.326 2.494zm-2.28 24.028a16.733 16.733 0 0 1-1.097 1.953c-.609.917-1.243 1.593-2.104 2.491-7.43 7.742-24.443 16.222-49.187 5.488-5.86-2.54-9.7-6.794-11.33-9.886a37.14 37.14 0 0 1-1.375-3.37c.394.822.84 1.598 1.343 2.343 8.317 12.328 27.412 11.57 31.15 11.135 25.107-2.922 32.868-12.299 35.173-17.74a37.37 37.37 0 0 1-2.574 7.586zM36.911.42C16.56.419 0 17.597 0 38.709 0 59.823 16.56 77 36.912 77c20.354 0 36.916-17.177 36.916-38.291 0-21.112-16.562-38.29-36.916-38.29z" mask="url(#b)"/>
        </g>
    </g>
</svg>
