<svg xmlns="http://www.w3.org/2000/svg" xmlns:xlink="http://www.w3.org/1999/xlink" width="165" height="57" viewBox="0 0 165 57">
    <defs>
        <path id="a" d="M.276 40.335H55.28V.08H.276v40.254z"/>
    </defs>
    <g fill="none" fill-rule="evenodd" transform="translate(-14 -34)">
        <rect width="193" height="125" fill="#FFF" fill-opacity="0" rx="5"/>
        <path fill="#5675AB" d="M54.66 54.3H35.588v5.922h13.526c-.668 8.303-7.27 11.844-13.503 11.844-7.974 0-14.932-6.564-14.932-15.764 0-8.962 6.632-15.864 14.949-15.864 6.417 0 10.198 4.28 10.198 4.28l3.962-4.294S44.702 34.5 35.425 34.5c-11.812 0-20.95 10.43-20.95 21.697C14.475 67.236 23.071 78 35.727 78c11.13 0 19.278-7.977 19.278-19.773 0-2.49-.345-3.928-.345-3.928v.002"/>
        <path fill="#C93338" d="M71.018 55.4c3.874 0 7.545 3.203 7.545 8.36 0 5.05-3.656 8.343-7.563 8.343-4.293 0-7.68-3.515-7.68-8.382 0-4.763 3.346-8.32 7.698-8.32zM70.94 50c-7.877 0-13.523 6.295-13.523 13.637 0 7.45 5.476 13.863 13.615 13.863 7.37 0 13.406-5.756 13.406-13.702C84.438 54.69 77.415 50 70.94 50z"/>
        <g transform="translate(86.367 50)">
            <mask id="b" fill="#fff">
                <use xlink:href="#a"/>
            </mask>
            <path fill="#ECBD28" d="M13.814 5.537c3.855 0 7.509 3.235 7.509 8.446 0 5.1-3.638 8.427-7.527 8.427-4.273 0-7.644-3.55-7.644-8.468 0-4.811 3.329-8.405 7.662-8.405zM13.736.081C5.895.081.276 6.441.276 13.858c0 7.527 5.45 14.004 13.552 14.004 7.334 0 13.342-5.815 13.342-13.842C27.17 4.82 20.181.08 13.736.08z" mask="url(#b)"/>
            <path fill="#5675AB" d="M42.969 5.541c3.528 0 7.151 3.126 7.151 8.464 0 5.426-3.615 8.416-7.23 8.416-3.836 0-7.406-3.232-7.406-8.365 0-5.332 3.707-8.515 7.485-8.515zM42.448.096c-7.197 0-12.854 6.54-12.854 13.88 0 8.36 6.558 13.905 12.73 13.905 3.815 0 5.845-1.571 7.343-3.375v2.739c0 4.793-2.805 7.662-7.038 7.662-4.09 0-6.141-3.155-6.854-4.945l-5.146 2.232c1.826 4.004 5.5 8.18 12.042 8.18 7.156 0 12.61-4.676 12.61-14.482V.932h-5.614v2.352C47.94 1.354 45.58.096 42.447.096z" mask="url(#b)"/>
        </g>
        <path fill="#C93338" d="M166.667 55.282c2.452 0 4.216 1.335 4.965 2.934l-12.015 5.141c-.518-3.98 3.165-8.075 7.05-8.075zM166.433 50c-6.804 0-12.516 5.54-12.516 13.717 0 8.652 6.368 13.783 13.17 13.783 5.676 0 9.16-3.18 11.24-6.028l-4.638-3.16c-1.204 1.913-3.216 3.782-6.575 3.782-3.772 0-5.506-2.115-6.58-4.163l17.991-7.643-.934-2.24c-1.738-4.385-5.792-8.047-11.157-8.047l-.001-.001z"/>
        <path fill="#40AD53" d="M145.715 76.5h5.79V36h-5.79z"/>
    </g>
</svg>
